<?xml version="1.0" standalone="no"?>
<!DOCTYPE svg PUBLIC "-//W3C//DTD SVG 20010904//EN"
 "http://www.w3.org/TR/2001/REC-SVG-20010904/DTD/svg10.dtd">
<svg version="1.0" xmlns="http://www.w3.org/2000/svg"
 width="225.000000pt" height="225.000000pt" viewBox="0 0 225.000000 225.000000"
 preserveAspectRatio="xMidYMid meet">

<g transform="translate(0.000000,225.000000) scale(0.100000,-0.100000)"
fill="#472422" stroke="none">
<path d="M855 1948 c-31 -17 -115 -100 -131 -130 -17 -32 -18 -86 -3 -125 5
-15 131 -150 280 -298 l269 -270 -265 -265 c-146 -146 -272 -279 -280 -296
-19 -40 -19 -97 -1 -132 17 -31 101 -115 133 -131 31 -16 99 -14 137 4 18 9
192 176 388 373 374 376 368 368 368 458 0 18 -5 45 -11 61 -11 29 -656 684
-723 734 -31 23 -49 29 -90 29 -28 0 -60 -6 -71 -12z"/>
</g>
</svg>
