<svg width="31" height="31" viewBox="0 0 31 31" fill="none" xmlns="http://www.w3.org/2000/svg">
<path d="M13.1163 0.101856C11.7803 0.309668 9.85065 0.94795 8.51471 1.61592C2.99284 4.37686 -0.317317 10.1214 0.0240892 16.2815C0.350652 21.8034 3.58659 26.7167 8.51471 29.1214C11.0233 30.3534 10.8155 30.4276 10.8155 28.3792V26.6425L10.0436 26.7315C8.21784 26.9542 6.85221 25.9894 6.19909 24.03C5.96159 23.2878 5.70925 22.8722 5.23425 22.412C4.89284 22.0854 4.6405 21.7589 4.68503 21.7144C4.878 21.5362 5.70925 21.6401 6.11003 21.8925C6.33268 22.0409 6.82253 22.5753 7.19362 23.08C8.05456 24.2378 8.61862 24.594 9.61315 24.594C10.6374 24.594 10.9046 24.4308 11.0085 23.7331C11.0678 23.4214 11.3647 22.7979 11.6764 22.3526L12.2553 21.5362L11.4983 21.3581C9.44987 20.8831 7.43112 19.3839 6.68893 17.8104C6.33268 17.0386 6.28815 16.7862 6.28815 15.3167C6.28815 13.8472 6.33268 13.5948 6.70378 12.7933C6.92643 12.3034 7.31237 11.6503 7.56471 11.3534C7.9655 10.8339 7.99518 10.7597 7.84675 10.1659C7.65378 9.31982 7.65378 7.86514 7.86159 6.92998C8.01003 6.24717 8.05456 6.18779 8.44049 6.18779C9.27174 6.18779 10.7561 6.84092 11.8694 7.70186C12.3592 8.07295 12.4483 8.08779 12.9827 7.93936C13.7249 7.70186 17.1092 7.70186 17.8514 7.93936C18.4007 8.10264 18.46 8.07295 18.9944 7.67217C19.7663 7.04873 21.3991 6.30654 22.171 6.23232L22.8092 6.15811L22.9725 6.91514C23.1655 7.83545 23.1803 9.45342 22.9874 10.255C22.8686 10.7745 22.8983 10.8933 23.2842 11.3683C23.5217 11.6651 23.9077 12.3034 24.1303 12.7933C24.5014 13.5948 24.546 13.8472 24.546 15.3167C24.546 16.7862 24.5014 17.0386 24.1452 17.8104C23.403 19.3987 21.3842 20.8831 19.321 21.3581L18.5639 21.5362L19.0092 22.1003C19.8999 23.2284 20.0186 23.8222 20.0186 27.1323V30.1011L20.36 30.012C20.5381 29.9526 21.0874 29.73 21.5772 29.5222C27.8264 26.8058 31.6413 20.0815 30.7061 13.387C29.8155 6.98936 25.3624 2.0167 19.0538 0.383886C17.6882 0.0424805 14.5413 -0.1208 13.1163 0.101856Z" fill="#793A37"/>
</svg>
