<svg width="30" height="30" viewBox="0 0 30 30" fill="none" xmlns="http://www.w3.org/2000/svg">
<path d="M0 15C0 23.2843 6.71573 30 15 30C23.2843 30 30 23.2843 30 15C30 6.71573 23.2843 0 15 0C6.71573 0 0 6.71573 0 15ZM8.4375 10.2875V12.294C8.4375 12.4983 8.67975 12.6058 8.83125 12.4688C9.6 11.7687 10.3313 11.4812 11.3125 11.4812C12.2312 11.4875 13.0437 11.7937 13.6 12.35C13.8938 12.6437 14.225 13.35 14.3188 13.875C14.3625 14.1312 14.4 15.5375 14.4187 17.6687L14.4385 19.8126C14.4448 20.501 13.8885 21.0625 13.2 21.0625C12.505 21.0625 11.9406 20.5012 11.9366 19.8063L11.925 17.7625C11.9062 14.75 11.8938 14.45 11.7937 14.2188C11.5375 13.6562 11.125 13.4125 10.4375 13.4125C9.46875 13.4187 8.84375 13.9312 8.5875 14.9375C8.50625 15.275 8.48125 15.8313 8.45625 18.2L8.43824 19.8501C8.4309 20.5218 7.88428 21.0625 7.2125 21.0625C6.54285 21.0625 6 20.5196 6 19.85V14.4062V8.96875C6 8.29565 6.54565 7.75 7.21875 7.75C7.89185 7.75 8.4375 8.29565 8.4375 8.96875V10.2875ZM18.0625 10.2875V12.2368C18.0625 12.4609 18.3295 12.5774 18.4937 12.425C19.2125 11.7563 19.9 11.4875 20.875 11.4875C21.7688 11.4812 22.5 11.7437 23.1 12.2687C23.4062 12.5375 23.7688 13.2125 23.8813 13.7188C23.9312 13.925 23.9625 15.2562 23.9813 17.5437L23.9976 19.8438C24.0024 20.5155 23.4592 21.0625 22.7875 21.0625C22.111 21.0625 21.5625 20.514 21.5625 19.8375V18.5125C21.5562 15.45 21.5063 14.4875 21.3188 14.1C20.825 13.0812 19.0375 13.2 18.425 14.2937C18.1063 14.8625 18.0688 15.2875 18.0625 18.325V19.8438C18.0625 20.5168 17.5168 21.0625 16.8438 21.0625C16.1707 21.0625 15.625 20.5168 15.625 19.8438V14.4062V8.96875C15.625 8.29565 16.1707 7.75 16.8438 7.75C17.5168 7.75 18.0625 8.29565 18.0625 8.96875V10.2875Z" fill="#793A37"/>
</svg>
