<svg width="31" height="31" viewBox="0 0 31 31" fill="none" xmlns="http://www.w3.org/2000/svg">
<g clip-path="url(#clip0_21_325)">
<path d="M13.5828 1.00296C9.82192 1.39046 6.47766 3.0755 3.90785 5.8702C0.281961 9.80979 -0.932536 15.5225 0.763066 20.6657C1.53166 22.9966 2.74616 24.9458 4.5239 26.6954C6.88249 29.0146 9.74565 30.406 13.1721 30.8933C13.8702 30.9932 16.176 30.9873 16.8977 30.8875C20.3358 30.4119 23.2987 28.9441 25.6808 26.531C28.0511 24.1297 29.4416 21.2822 29.9345 17.8181C30.0342 17.1253 30.0342 14.8121 29.9345 14.1193C29.6528 12.1407 29.0779 10.3558 28.2037 8.77646C27.5172 7.52589 26.7193 6.45732 25.6808 5.40638C23.3457 3.04028 20.4414 1.57247 17.103 1.07929C16.3814 0.973606 14.2985 0.926636 13.5828 1.00296ZM22.0314 10.0623C22.2896 10.1738 22.4128 10.4204 22.4128 10.8314C22.4128 11.2071 19.931 22.9966 19.8019 23.2549C19.6142 23.6189 19.2093 23.7539 18.7986 23.6013C18.6578 23.5484 17.3025 22.568 15.3194 21.0943L14.8266 20.7303L13.7646 21.746C12.9843 22.4858 12.644 22.7793 12.5032 22.8087C12.3976 22.8322 12.2979 22.838 12.2861 22.8204C12.2685 22.8028 12.3096 21.9515 12.38 20.9181L12.5032 19.0511L12.9198 18.6695C13.1427 18.4581 14.7327 17.0197 16.4459 15.4697C18.165 13.9138 19.5672 12.6104 19.5672 12.5634C19.5672 12.4988 19.5027 12.4753 19.3619 12.4812C19.1917 12.4871 18.3234 13.0096 14.8031 15.2231C12.4152 16.732 10.4262 17.9649 10.391 17.9649C10.2326 17.9649 6.53046 16.7731 6.35445 16.6674C5.97895 16.4325 6.06109 16.0861 6.54806 15.8102C6.67714 15.7397 7.61001 15.3581 8.62503 14.9706C9.64004 14.5772 11.5586 13.8375 12.8787 13.3267C14.2047 12.8159 16.5633 11.9058 18.1298 11.3011C21.5621 9.97419 21.5269 9.98593 21.697 9.98006C21.7674 9.98006 21.92 10.0153 22.0314 10.0623Z" fill="#793A37"/>
</g>
<defs>
<clipPath id="clip0_21_325">
<rect width="31" height="31" fill="white"/>
</clipPath>
</defs>
</svg>
